Patient4_TMGait_0pt7_02_right_25_GRF.mot
version=1
nRows=26
nColumns=19
inDegrees=no
endheader
time	F1x	F1y	F1z	M1x	M1y	M1z	F2x	F2y	F2z	M2x	M2y	M2z	EC1x	EC1y	EC1z	EC2x	EC2y	EC2z
27.88	24.0995	724.2775	38.3331	-236.3391	-33.3571	716.5794	10.3432	-7.2224	-19.5757	3.852	13.0589	-10.9853	-0.0592	0.0182	-0.0073	-0.0462	0.0165	0.9585
27.8915	24.9052	728.831	43.2097	-238.3536	-36.5093	721.9847	7.0244	-4.0621	-13.2891	2.9869	8.904	-6.567	-0.0592	0.0182	-0.0073	-0.0462	0.0165	0.9585
27.903	25.8093	734.2628	46.9184	-240.5928	-38.6084	727.2226	4.1616	-1.3046	-7.9547	2.2668	5.4011	-2.695	-0.0592	0.0182	-0.0073	-0.0462	0.0165	0.9585
27.9145	26.6678	740.1123	49.3116	-242.8616	-39.6116	731.8551	1.904	0.87681	-3.8757	1.7361	2.7467	0.38581	-0.0592	0.0182	-0.0073	-0.0462	0.0165	0.9585
27.926	27.4028	745.8276	50.4256	-244.9616	-39.5868	735.4939	0.32001	2.4536	-1.0583	1.387	0.93	2.6124	-0.0592	0.0182	-0.0073	-0.0462	0.0165	0.9585
27.9375	27.9663	750.8473	50.6048	-246.6945	-38.8537	737.8197	-0.72431	3.5133	0.68929	1.1921	-0.17516	4.1163	-0.0592	0.0182	-0.0073	-0.0462	0.0165	0.9585
27.949	28.414	754.6573	50.1597	-247.8866	-37.6658	738.5383	-1.3208	4.1274	1.6007	1.099	-0.73113	4.9859	-0.0592	0.0182	-0.0073	-0.0462	0.0165	0.9585
27.9605	28.839	756.8342	49.5096	-248.3905	-36.3678	737.4123	-1.6355	4.3934	1.9397	1.0584	-0.90612	5.3792	-0.0592	0.0182	-0.0073	-0.0462	0.0165	0.9585
27.972	29.3972	757.1251	48.9545	-248.1236	-35.1778	734.3049	-1.7511	4.3155	1.9052	1.0042	-0.83208	5.309	-0.0592	0.0182	-0.0073	-0.0462	0.0165	0.9585
27.9835	30.2783	755.4924	48.7628	-247.077	-34.276	729.2444	-1.7776	3.9265	1.6685	0.88761	-0.61413	4.8471	-0.0592	0.0182	-0.0073	-0.0462	0.0165	0.9585
27.995	31.5841	752.1456	49.0717	-245.3321	-33.7409	722.4785	-1.7379	3.1614	1.3296	0.64833	-0.3202	3.9151	-0.0592	0.0182	-0.0073	-0.0462	0.0165	0.9585
28.0065	33.4075	747.5594	49.8954	-243.0616	-33.5462	714.4835	-1.6769	2.0017	0.96158	0.24968	0.0013571	2.51	-0.0592	0.0182	-0.0073	-0.0462	0.0165	0.9585
28.018	35.7383	742.4532	51.18	-240.5183	-33.634	705.9823	-1.5643	0.38105	0.60364	-0.34234	0.30423	0.53491	-0.0592	0.0182	-0.0073	-0.0462	0.0165	0.9585
28.0295	38.5758	737.695	52.7868	-237.9998	-33.8719	697.8014	-1.4058	-1.6656	0.28992	-1.1218	0.54829	-1.9552	-0.0592	0.0182	-0.0073	-0.0462	0.0165	0.9585
28.041	41.8485	734.2013	54.6214	-235.8066	-34.1894	690.8481	-1.12	-4.0262	0.054879	-2.0365	0.65955	-4.8447	-0.0592	0.0182	-0.0073	-0.0462	0.0165	0.9585
28.0525	45.5035	732.7623	56.5956	-234.1952	-34.5228	685.8726	-0.66933	-6.3575	-0.058547	-2.9442	0.56144	-7.7127	-0.0592	0.0182	-0.0073	-0.0462	0.0165	0.9585
28.064	49.3835	733.9077	58.7264	-233.3268	-34.9309	683.4176	0.057489	-8.0759	0.027521	-3.5955	0.12072	-9.8721	-0.0592	0.0182	-0.0073	-0.0462	0.0165	0.9585
28.0755	53.3682	737.7981	61.0337	-233.2489	-35.4719	683.6475	1.0945	-8.2055	0.39517	-3.5851	-0.78755	-10.1247	-0.0592	0.0182	-0.0073	-0.0462	0.0165	0.9585
28.087	57.267	744.22	63.5634	-233.895	-36.2419	686.3954	2.497	-5.3958	1.1554	-2.3471	-2.3148	-6.8326	-0.0592	0.0182	-0.0073	-0.0462	0.0165	0.9585
28.0985	60.9856	752.5909	66.3022	-235.0948	-37.2577	691.1053	4.1812	2.1425	2.4259	0.85623	-4.5696	2.2068	-0.0592	0.0182	-0.0073	-0.0462	0.0165	0.9585
28.11	64.4455	762.038	69.1602	-236.6011	-38.454	696.9635	6.0007	16.4602	4.2974	6.8719	-7.5831	19.4881	-0.0592	0.0182	-0.0073	-0.0462	0.0165	0.9585
28.1215	67.6877	771.4362	71.9426	-238.1094	-39.639	702.8862	7.564	39.6222	6.7838	16.5417	-11.1984	47.5567	-0.0592	0.0182	-0.0073	-0.0462	0.0165	0.9585
28.133	70.7473	779.4324	74.3599	-239.2591	-40.5388	707.6233	8.2976	73.1282	9.7532	30.468	-14.987	88.2683	-0.0592	0.0182	-0.0073	-0.0462	0.0165	0.9585
28.1445	73.6926	784.4527	76.0675	-239.629	-40.8361	709.6976	7.272	117.0731	12.8259	48.6552	-18.0864	141.8069	-0.0592	0.0182	-0.0073	-0.0462	0.0165	0.9585
28.156	76.466	784.6889	76.7178	-238.7206	-40.2512	707.4782	3.3832	169.0123	15.2972	70.0472	-19.1851	205.2684	-0.0592	0.0182	-0.0073	-0.0462	0.0165	0.9585
28.1675	78.9448	778.127	76.0216	-235.9619	-38.5876	699.1606	-4.0427	223.1172	16.2194	92.1844	-16.8988	271.6846	-0.0592	0.0182	-0.0073	-0.0462	0.0165	0.9585
